<?xml version="1.0" encoding="UTF-8" standalone="no"?>
<!DOCTYPE svg PUBLIC "-//W3C//DTD SVG 1.1//EN" "http://www.w3.org/Graphics/SVG/1.1/DTD/svg11.dtd">
<svg width="100%" height="100%" viewBox="0 0 500 140" version="1.1" xmlns="http://www.w3.org/2000/svg" xmlns:xlink="http://www.w3.org/1999/xlink" xml:space="preserve" style="fill-rule:evenodd;clip-rule:evenodd;stroke-linejoin:round;stroke-miterlimit:1.41421;">
    <g transform="matrix(0.643595,0,0,0.643595,88.8901,21.6011)">
        <path d="M26.74,118.118C23.566,98.673 34.172,84.414 40.545,66.905C44.136,57.081 46.453,44.503 35.006,38.856C34.111,38.43 32.783,38.304 32.496,37.235C31.943,35.159 35.217,35.259 36.458,35.193C37.251,35.143 37.889,35.143 38.108,35.163C43.874,35.711 48.694,39.352 51.796,44.092C53.402,46.531 54.439,49.737 54.982,52.612C55.273,54.111 54.832,57.938 56.39,58.842C57.704,59.603 59.203,57.208 59.818,56.522C66.046,49.363 72.637,43.434 80.552,38.119C97.061,27.051 121.668,13.381 116.47,-10.641C116.03,-12.684 115.344,-14.677 114.448,-16.556C114.003,-17.473 112.35,-20.26 114.42,-19.866C117.767,-19.206 122,-13.037 123.649,-10.398C133.432,5.072 131.187,24.718 125.155,41.112C123.345,46.066 121.169,50.813 118.781,55.495C116.464,60.011 113.47,64.225 111.98,69.127C111.268,71.517 110.591,75.424 113.138,76.992C118.458,80.298 122.029,71.42 124.094,68.093C127.515,62.615 133.338,60.059 139.662,59.719C140.528,59.681 149.805,59.508 147.474,62.006C146.844,62.69 145.365,62.672 144.596,62.844C128.921,66.103 127.167,85.404 128.851,97.534C129.992,105.848 130.27,113.472 127.546,125.159L127.549,125.055C122.718,148.198 102.202,165.581 77.622,165.581C50.644,165.581 28.557,144.636 26.74,118.118ZM101.012,137.137C100.099,138.635 98.137,139.11 96.639,138.19C84.664,130.876 69.589,129.219 51.835,133.275C50.124,133.665 48.419,132.593 48.029,130.882C47.638,129.17 48.705,127.465 50.42,127.075C69.849,122.635 86.514,124.548 99.959,132.764C101.457,133.683 101.932,135.638 101.012,137.137L101.012,137.137ZM107.255,123.247C106.104,125.12 103.655,125.711 101.786,124.56C88.076,116.131 67.178,113.691 50.962,118.613C48.859,119.248 46.638,118.063 45.999,115.964C45.366,113.861 46.552,111.644 48.651,111.004C67.174,105.384 90.202,108.106 105.945,117.781C107.815,118.932 108.406,121.381 107.255,123.248L107.255,123.247ZM107.791,108.786C91.353,99.022 64.232,98.125 48.537,102.888C46.017,103.652 43.352,102.23 42.588,99.709C41.824,97.188 43.246,94.525 45.768,93.758C63.784,88.289 93.734,89.346 112.66,100.581C114.931,101.926 115.674,104.854 114.328,107.118C112.988,109.385 110.053,110.132 107.793,108.786L107.791,108.786Z" style="fill:url(#_Linear1);"/>
    </g>
    <g transform="matrix(0.643595,0,0,0.643595,87.5136,47.536)">
        <path d="M190.554,50.183C196.016,50.183 200.325,51.741 203.482,54.855C206.213,57.586 207.578,60.893 207.578,64.775L199.13,64.775C199.13,62.813 198.362,61.202 196.826,59.943C195.29,58.685 193.2,58.055 190.554,58.055C188.165,58.055 186.16,58.482 184.538,59.335C182.789,60.274 181.914,61.554 181.914,63.175C181.914,64.626 182.704,65.757 184.282,66.567C185.605,67.293 188.08,68.018 191.706,68.743C197.68,69.938 201.861,71.367 204.25,73.031C207.365,75.165 208.922,78.343 208.922,82.567C208.922,86.834 207.269,90.226 203.962,92.743C200.656,95.261 196.186,96.519 190.554,96.519C185.733,96.519 181.616,95.282 178.202,92.807C174.32,89.949 172.378,86.023 172.378,81.031L180.826,81.031C180.826,83.463 181.893,85.405 184.026,86.855C185.861,88.135 188.037,88.775 190.554,88.775C193.285,88.775 195.546,88.306 197.338,87.367C199.429,86.301 200.474,84.786 200.474,82.823C200.474,81.373 199.749,80.199 198.298,79.303C196.72,78.322 193.946,77.447 189.978,76.679C184.816,75.655 181.04,74.375 178.65,72.839C175.194,70.621 173.466,67.378 173.466,63.111C173.466,59.271 175.024,56.157 178.138,53.767C181.253,51.378 185.392,50.183 190.554,50.183Z" style="fill:url(#_Linear2);fill-rule:nonzero;"/>
        <path d="M248.794,65.671C248.794,69.853 247.472,73.266 244.826,75.911C242.181,78.557 238.682,79.879 234.33,79.879L223.898,79.879L223.898,95.751L215.45,95.751L215.45,51.335L234.138,51.335C238.746,51.335 242.341,52.626 244.922,55.207C247.504,57.789 248.794,61.277 248.794,65.671ZM234.074,59.207L223.898,59.207L223.898,72.135L234.074,72.135C238.256,72.135 240.346,69.981 240.346,65.671C240.346,61.362 238.256,59.207 234.074,59.207Z" style="fill:url(#_Linear3);fill-rule:nonzero;"/>
        <rect x="254.682" y="51.335" width="8.448" height="44.416" style="fill:url(#_Linear4);fill-rule:nonzero;"/>
        <path d="M308.89,81.671C307.482,86.237 304.986,89.853 301.402,92.519C297.818,95.186 293.594,96.519 288.73,96.519C282.672,96.519 277.573,94.279 273.434,89.799C269.296,85.319 267.226,79.837 267.226,73.351C267.226,66.866 269.296,61.383 273.434,56.903C277.573,52.423 282.672,50.183 288.73,50.183C293.722,50.183 297.989,51.506 301.53,54.151C305.072,56.797 307.546,60.402 308.954,64.967L299.802,64.967C298.778,62.877 297.328,61.191 295.45,59.911C293.445,58.589 291.205,57.927 288.73,57.927C285.104,57.927 282.021,59.442 279.482,62.471C276.944,65.501 275.674,69.127 275.674,73.351C275.674,77.618 276.944,81.266 279.482,84.295C282.021,87.325 285.104,88.839 288.73,88.839C291.162,88.839 293.402,88.157 295.45,86.791C297.328,85.511 298.778,83.805 299.802,81.671L308.89,81.671Z" style="fill:url(#_Linear5);fill-rule:nonzero;"/>
        <path d="M347.418,87.879L347.418,95.751L314.522,95.751L314.522,51.335L346.97,51.335L346.97,59.207L322.97,59.207L322.97,68.679L343.45,68.679L343.45,76.551L322.97,76.551L322.97,87.879L347.418,87.879Z" style="fill:url(#_Linear6);fill-rule:nonzero;"/>
        <path d="M382.618,59.207L370.714,59.207L370.714,95.751L362.266,95.751L362.266,59.207L350.362,59.207L350.362,51.335L382.618,51.335L382.618,59.207Z" style="fill:url(#_Linear7);fill-rule:nonzero;"/>
        <rect x="387.93" y="51.335" width="8.448" height="44.416" style="fill:url(#_Linear8);fill-rule:nonzero;"/>
        <path d="M413.146,59.207L413.146,69.767L433.178,69.767L433.178,77.639L413.146,77.639L413.146,95.751L404.698,95.751L404.698,51.335L436.442,51.335L436.442,59.207L413.146,59.207Z" style="fill:url(#_Linear9);fill-rule:nonzero;"/>
        <path d="M461.722,78.727L461.722,95.751L453.21,95.751L453.21,78.727L438.298,51.335L447.834,51.335L457.434,70.343L467.098,51.335L476.634,51.335L461.722,78.727Z" style="fill:url(#_Linear10);fill-rule:nonzero;"/>
    </g>
    <defs>
        <linearGradient id="_Linear1" x1="0" y1="0" x2="1" y2="0" gradientUnits="userSpaceOnUse" gradientTransform="matrix(1.31435e-14,-185.494,214.649,1.13582e-14,86.9862,165.6)"><stop offset="0" style="stop-color:rgb(232,73,61);stop-opacity:1"/><stop offset="0.22" style="stop-color:rgb(234,83,58);stop-opacity:1"/><stop offset="0.6" style="stop-color:rgb(240,111,49);stop-opacity:1"/><stop offset="1" style="stop-color:rgb(247,146,38);stop-opacity:1"/></linearGradient>
        <linearGradient id="_Linear2" x1="0" y1="0" x2="1" y2="0" gradientUnits="userSpaceOnUse" gradientTransform="matrix(3.31113e-14,-77.3159,540.749,4.73423e-15,323.181,111.887)"><stop offset="0" style="stop-color:rgb(232,73,61);stop-opacity:1"/><stop offset="0.22" style="stop-color:rgb(234,83,58);stop-opacity:1"/><stop offset="0.6" style="stop-color:rgb(240,111,49);stop-opacity:1"/><stop offset="1" style="stop-color:rgb(247,146,38);stop-opacity:1"/></linearGradient>
        <linearGradient id="_Linear3" x1="0" y1="0" x2="1" y2="0" gradientUnits="userSpaceOnUse" gradientTransform="matrix(3.31113e-14,-77.3159,540.749,4.73423e-15,323.181,111.887)"><stop offset="0" style="stop-color:rgb(232,73,61);stop-opacity:1"/><stop offset="0.22" style="stop-color:rgb(234,83,58);stop-opacity:1"/><stop offset="0.6" style="stop-color:rgb(240,111,49);stop-opacity:1"/><stop offset="1" style="stop-color:rgb(247,146,38);stop-opacity:1"/></linearGradient>
        <linearGradient id="_Linear4" x1="0" y1="0" x2="1" y2="0" gradientUnits="userSpaceOnUse" gradientTransform="matrix(3.31113e-14,-77.3159,540.749,4.73423e-15,323.181,111.887)"><stop offset="0" style="stop-color:rgb(232,73,61);stop-opacity:1"/><stop offset="0.22" style="stop-color:rgb(234,83,58);stop-opacity:1"/><stop offset="0.6" style="stop-color:rgb(240,111,49);stop-opacity:1"/><stop offset="1" style="stop-color:rgb(247,146,38);stop-opacity:1"/></linearGradient>
        <linearGradient id="_Linear5" x1="0" y1="0" x2="1" y2="0" gradientUnits="userSpaceOnUse" gradientTransform="matrix(3.31113e-14,-77.3159,540.749,4.73423e-15,323.181,111.887)"><stop offset="0" style="stop-color:rgb(232,73,61);stop-opacity:1"/><stop offset="0.22" style="stop-color:rgb(234,83,58);stop-opacity:1"/><stop offset="0.6" style="stop-color:rgb(240,111,49);stop-opacity:1"/><stop offset="1" style="stop-color:rgb(247,146,38);stop-opacity:1"/></linearGradient>
        <linearGradient id="_Linear6" x1="0" y1="0" x2="1" y2="0" gradientUnits="userSpaceOnUse" gradientTransform="matrix(3.31113e-14,-77.3159,540.749,4.73423e-15,323.181,111.887)"><stop offset="0" style="stop-color:rgb(232,73,61);stop-opacity:1"/><stop offset="0.22" style="stop-color:rgb(234,83,58);stop-opacity:1"/><stop offset="0.6" style="stop-color:rgb(240,111,49);stop-opacity:1"/><stop offset="1" style="stop-color:rgb(247,146,38);stop-opacity:1"/></linearGradient>
        <linearGradient id="_Linear7" x1="0" y1="0" x2="1" y2="0" gradientUnits="userSpaceOnUse" gradientTransform="matrix(3.31113e-14,-77.3159,540.749,4.73423e-15,323.181,111.887)"><stop offset="0" style="stop-color:rgb(232,73,61);stop-opacity:1"/><stop offset="0.22" style="stop-color:rgb(234,83,58);stop-opacity:1"/><stop offset="0.6" style="stop-color:rgb(240,111,49);stop-opacity:1"/><stop offset="1" style="stop-color:rgb(247,146,38);stop-opacity:1"/></linearGradient>
        <linearGradient id="_Linear8" x1="0" y1="0" x2="1" y2="0" gradientUnits="userSpaceOnUse" gradientTransform="matrix(3.31113e-14,-77.3159,540.749,4.73423e-15,323.181,111.887)"><stop offset="0" style="stop-color:rgb(232,73,61);stop-opacity:1"/><stop offset="0.22" style="stop-color:rgb(234,83,58);stop-opacity:1"/><stop offset="0.6" style="stop-color:rgb(240,111,49);stop-opacity:1"/><stop offset="1" style="stop-color:rgb(247,146,38);stop-opacity:1"/></linearGradient>
        <linearGradient id="_Linear9" x1="0" y1="0" x2="1" y2="0" gradientUnits="userSpaceOnUse" gradientTransform="matrix(3.31113e-14,-77.3159,540.749,4.73423e-15,323.181,111.887)"><stop offset="0" style="stop-color:rgb(232,73,61);stop-opacity:1"/><stop offset="0.22" style="stop-color:rgb(234,83,58);stop-opacity:1"/><stop offset="0.6" style="stop-color:rgb(240,111,49);stop-opacity:1"/><stop offset="1" style="stop-color:rgb(247,146,38);stop-opacity:1"/></linearGradient>
        <linearGradient id="_Linear10" x1="0" y1="0" x2="1" y2="0" gradientUnits="userSpaceOnUse" gradientTransform="matrix(3.31113e-14,-77.3159,540.749,4.73423e-15,323.181,111.887)"><stop offset="0" style="stop-color:rgb(232,73,61);stop-opacity:1"/><stop offset="0.22" style="stop-color:rgb(234,83,58);stop-opacity:1"/><stop offset="0.6" style="stop-color:rgb(240,111,49);stop-opacity:1"/><stop offset="1" style="stop-color:rgb(247,146,38);stop-opacity:1"/></linearGradient>
    </defs>
</svg>
