<?xml version="1.0" encoding="UTF-8" standalone="no"?><!DOCTYPE svg PUBLIC "-//W3C//DTD SVG 1.1//EN" "http://www.w3.org/Graphics/SVG/1.1/DTD/svg11.dtd"><svg width="100%" height="100%" viewBox="0 0 500 200" version="1.1" xmlns="http://www.w3.org/2000/svg" xmlns:xlink="http://www.w3.org/1999/xlink" xml:space="preserve" style="fill-rule:evenodd;clip-rule:evenodd;stroke-linejoin:round;stroke-miterlimit:1.41421;"><g><path d="M23.735,145.279c-3.174,-19.445 7.433,-33.704 13.806,-51.213c3.59,-9.823 5.907,-22.402 -5.54,-28.049c-0.894,-0.426 -2.223,-0.552 -2.509,-1.621c-0.553,-2.076 2.721,-1.976 3.962,-2.042c0.793,-0.049 1.431,-0.05 1.65,-0.029c5.765,0.547 10.586,4.188 13.687,8.929c1.607,2.438 2.644,5.645 3.187,8.519c0.291,1.5 -0.151,5.326 1.407,6.23c1.315,0.762 2.814,-1.634 3.429,-2.32c6.227,-7.159 12.819,-13.088 20.734,-18.403c16.509,-11.068 41.116,-24.738 35.918,-48.76c-0.441,-2.042 -1.126,-4.036 -2.022,-5.915c-0.445,-0.916 -2.099,-3.704 -0.028,-3.309c3.347,0.66 7.58,6.829 9.228,9.467c9.784,15.471 7.538,35.116 1.506,51.511c-1.809,4.954 -3.985,9.7 -6.373,14.383c-2.317,4.516 -5.311,8.73 -6.801,13.632c-0.713,2.389 -1.389,6.296 1.158,7.864c5.319,3.307 8.89,-5.571 10.955,-8.898c3.421,-5.479 9.245,-8.034 15.569,-8.375c0.866,-0.037 10.143,-0.211 7.812,2.287c-0.63,0.684 -2.109,0.667 -2.878,0.839c-15.675,3.258 -17.429,22.559 -15.746,34.689c1.141,8.315 1.42,15.938 -1.304,27.625l0.003,-0.104c-4.831,23.143 -25.347,40.526 -49.927,40.526c-26.978,0 -49.065,-20.945 -50.883,-47.463Zm74.273,19.019c-0.914,1.498 -2.875,1.973 -4.373,1.054c-11.975,-7.315 -27.05,-8.972 -44.804,-4.915c-1.711,0.389 -3.416,-0.683 -3.806,-2.394c-0.392,-1.711 0.676,-3.417 2.391,-3.807c19.429,-4.44 36.094,-2.527 49.538,5.689c1.498,0.92 1.974,2.875 1.054,4.373l0,0Zm6.243,-13.889c-1.151,1.872 -3.6,2.463 -5.47,1.312c-13.709,-8.429 -34.608,-10.869 -50.824,-5.947c-2.103,0.636 -4.324,-0.55 -4.962,-2.649c-0.633,-2.103 0.552,-4.32 2.652,-4.959c18.523,-5.621 41.55,-2.898 57.294,6.776c1.87,1.151 2.461,3.6 1.31,5.467l0,0Zm0.536,-14.462c-16.439,-9.763 -43.56,-10.661 -59.254,-5.898c-2.52,0.765 -5.186,-0.658 -5.949,-3.178c-0.764,-2.522 0.657,-5.185 3.18,-5.951c18.016,-5.47 47.966,-4.413 66.891,6.822c2.272,1.346 3.015,4.273 1.669,6.537c-1.34,2.267 -4.275,3.014 -6.535,1.668l-0.002,0Z" style="fill:url(#_Linear1);"/></g><g><path d="M185.411,117.641c5.462,0 9.771,1.558 12.928,4.672c2.731,2.731 4.096,6.038 4.096,9.92l-8.448,0c0,-1.962 -0.768,-3.573 -2.304,-4.832c-1.536,-1.258 -3.626,-1.888 -6.272,-1.888c-2.389,0 -4.394,0.427 -6.016,1.28c-1.749,0.939 -2.624,2.219 -2.624,3.84c0,1.451 0.79,2.582 2.368,3.392c1.323,0.726 3.798,1.451 7.424,2.176c5.974,1.195 10.155,2.624 12.544,4.288c3.115,2.134 4.672,5.312 4.672,9.536c0,4.267 -1.653,7.659 -4.96,10.176c-3.306,2.518 -7.776,3.776 -13.408,3.776c-4.821,0 -8.938,-1.237 -12.352,-3.712c-3.882,-2.858 -5.824,-6.784 -5.824,-11.776l8.448,0c0,2.432 1.067,4.374 3.2,5.824c1.835,1.28 4.011,1.92 6.528,1.92c2.731,0 4.992,-0.469 6.784,-1.408c2.091,-1.066 3.136,-2.581 3.136,-4.544c0,-1.45 -0.725,-2.624 -2.176,-3.52c-1.578,-0.981 -4.352,-1.856 -8.32,-2.624c-5.162,-1.024 -8.938,-2.304 -11.328,-3.84c-3.456,-2.218 -5.184,-5.461 -5.184,-9.728c0,-3.84 1.558,-6.954 4.672,-9.344c3.115,-2.389 7.254,-3.584 12.416,-3.584Z" style="fill:url(#_Linear2);fill-rule:nonzero;"/><path d="M243.651,133.129c0,4.182 -1.322,7.595 -3.968,10.24c-2.645,2.646 -6.144,3.968 -10.496,3.968l-10.432,0l0,15.872l-8.448,0l0,-44.416l18.688,0c4.608,0 8.203,1.291 10.784,3.872c2.582,2.582 3.872,6.07 3.872,10.464Zm-14.72,-6.464l-10.176,0l0,12.928l10.176,0c4.182,0 6.272,-2.154 6.272,-6.464c0,-4.309 -2.09,-6.464 -6.272,-6.464Z" style="fill:url(#_Linear3);fill-rule:nonzero;"/><rect x="249.539" y="118.793" width="8.448" height="44.416" style="fill:url(#_Linear4);fill-rule:nonzero;"/><path d="M303.747,149.129c-1.408,4.566 -3.904,8.182 -7.488,10.848c-3.584,2.667 -7.808,4 -12.672,4c-6.058,0 -11.157,-2.24 -15.296,-6.72c-4.138,-4.48 -6.208,-9.962 -6.208,-16.448c0,-6.485 2.07,-11.968 6.208,-16.448c4.139,-4.48 9.238,-6.72 15.296,-6.72c4.992,0 9.259,1.323 12.8,3.968c3.542,2.646 6.016,6.251 7.424,10.816l-9.152,0c-1.024,-2.09 -2.474,-3.776 -4.352,-5.056c-2.005,-1.322 -4.245,-1.984 -6.72,-1.984c-3.626,0 -6.709,1.515 -9.248,4.544c-2.538,3.03 -3.808,6.656 -3.808,10.88c0,4.267 1.27,7.915 3.808,10.944c2.539,3.03 5.622,4.544 9.248,4.544c2.432,0 4.672,-0.682 6.72,-2.048c1.878,-1.28 3.328,-2.986 4.352,-5.12l9.088,0Z" style="fill:url(#_Linear5);fill-rule:nonzero;"/><path d="M342.275,155.337l0,7.872l-32.896,0l0,-44.416l32.448,0l0,7.872l-24,0l0,9.472l20.48,0l0,7.872l-20.48,0l0,11.328l24.448,0Z" style="fill:url(#_Linear6);fill-rule:nonzero;"/><path d="M377.475,126.665l-11.904,0l0,36.544l-8.448,0l0,-36.544l-11.904,0l0,-7.872l32.256,0l0,7.872Z" style="fill:url(#_Linear7);fill-rule:nonzero;"/><rect x="382.787" y="118.793" width="8.448" height="44.416" style="fill:url(#_Linear8);fill-rule:nonzero;"/><path d="M408.003,126.665l0,10.56l20.032,0l0,7.872l-20.032,0l0,18.112l-8.448,0l0,-44.416l31.744,0l0,7.872l-23.296,0Z" style="fill:url(#_Linear9);fill-rule:nonzero;"/><path d="M456.579,146.185l0,17.024l-8.512,0l0,-17.024l-14.912,-27.392l9.536,0l9.6,19.008l9.664,-19.008l9.536,0l-14.912,27.392Z" style="fill:url(#_Linear10);fill-rule:nonzero;"/></g><defs><linearGradient id="_Linear1" x1="0" y1="0" x2="1" y2="0" gradientUnits="userSpaceOnUse" gradientTransform="matrix(1.31435e-14,-185.494,214.649,1.13582e-14,83.9819,192.761)"><stop offset="0" style="stop-color:#e8493d;stop-opacity:1"/><stop offset="0.22" style="stop-color:#ea533a;stop-opacity:1"/><stop offset="0.6" style="stop-color:#f06f31;stop-opacity:1"/><stop offset="1" style="stop-color:#f79226;stop-opacity:1"/></linearGradient><linearGradient id="_Linear2" x1="0" y1="0" x2="1" y2="0" gradientUnits="userSpaceOnUse" gradientTransform="matrix(3.31113e-14,-77.3159,540.749,4.73423e-15,318.038,179.345)"><stop offset="0" style="stop-color:#e8493d;stop-opacity:1"/><stop offset="0.22" style="stop-color:#ea533a;stop-opacity:1"/><stop offset="0.6" style="stop-color:#f06f31;stop-opacity:1"/><stop offset="1" style="stop-color:#f79226;stop-opacity:1"/></linearGradient><linearGradient id="_Linear3" x1="0" y1="0" x2="1" y2="0" gradientUnits="userSpaceOnUse" gradientTransform="matrix(3.31113e-14,-77.3159,540.749,4.73423e-15,318.038,179.345)"><stop offset="0" style="stop-color:#e8493d;stop-opacity:1"/><stop offset="0.22" style="stop-color:#ea533a;stop-opacity:1"/><stop offset="0.6" style="stop-color:#f06f31;stop-opacity:1"/><stop offset="1" style="stop-color:#f79226;stop-opacity:1"/></linearGradient><linearGradient id="_Linear4" x1="0" y1="0" x2="1" y2="0" gradientUnits="userSpaceOnUse" gradientTransform="matrix(3.31113e-14,-77.3159,540.749,4.73423e-15,318.038,179.345)"><stop offset="0" style="stop-color:#e8493d;stop-opacity:1"/><stop offset="0.22" style="stop-color:#ea533a;stop-opacity:1"/><stop offset="0.6" style="stop-color:#f06f31;stop-opacity:1"/><stop offset="1" style="stop-color:#f79226;stop-opacity:1"/></linearGradient><linearGradient id="_Linear5" x1="0" y1="0" x2="1" y2="0" gradientUnits="userSpaceOnUse" gradientTransform="matrix(3.31113e-14,-77.3159,540.749,4.73423e-15,318.038,179.345)"><stop offset="0" style="stop-color:#e8493d;stop-opacity:1"/><stop offset="0.22" style="stop-color:#ea533a;stop-opacity:1"/><stop offset="0.6" style="stop-color:#f06f31;stop-opacity:1"/><stop offset="1" style="stop-color:#f79226;stop-opacity:1"/></linearGradient><linearGradient id="_Linear6" x1="0" y1="0" x2="1" y2="0" gradientUnits="userSpaceOnUse" gradientTransform="matrix(3.31113e-14,-77.3159,540.749,4.73423e-15,318.038,179.345)"><stop offset="0" style="stop-color:#e8493d;stop-opacity:1"/><stop offset="0.22" style="stop-color:#ea533a;stop-opacity:1"/><stop offset="0.6" style="stop-color:#f06f31;stop-opacity:1"/><stop offset="1" style="stop-color:#f79226;stop-opacity:1"/></linearGradient><linearGradient id="_Linear7" x1="0" y1="0" x2="1" y2="0" gradientUnits="userSpaceOnUse" gradientTransform="matrix(3.31113e-14,-77.3159,540.749,4.73423e-15,318.038,179.345)"><stop offset="0" style="stop-color:#e8493d;stop-opacity:1"/><stop offset="0.22" style="stop-color:#ea533a;stop-opacity:1"/><stop offset="0.6" style="stop-color:#f06f31;stop-opacity:1"/><stop offset="1" style="stop-color:#f79226;stop-opacity:1"/></linearGradient><linearGradient id="_Linear8" x1="0" y1="0" x2="1" y2="0" gradientUnits="userSpaceOnUse" gradientTransform="matrix(3.31113e-14,-77.3159,540.749,4.73423e-15,318.038,179.345)"><stop offset="0" style="stop-color:#e8493d;stop-opacity:1"/><stop offset="0.22" style="stop-color:#ea533a;stop-opacity:1"/><stop offset="0.6" style="stop-color:#f06f31;stop-opacity:1"/><stop offset="1" style="stop-color:#f79226;stop-opacity:1"/></linearGradient><linearGradient id="_Linear9" x1="0" y1="0" x2="1" y2="0" gradientUnits="userSpaceOnUse" gradientTransform="matrix(3.31113e-14,-77.3159,540.749,4.73423e-15,318.038,179.345)"><stop offset="0" style="stop-color:#e8493d;stop-opacity:1"/><stop offset="0.22" style="stop-color:#ea533a;stop-opacity:1"/><stop offset="0.6" style="stop-color:#f06f31;stop-opacity:1"/><stop offset="1" style="stop-color:#f79226;stop-opacity:1"/></linearGradient><linearGradient id="_Linear10" x1="0" y1="0" x2="1" y2="0" gradientUnits="userSpaceOnUse" gradientTransform="matrix(3.31113e-14,-77.3159,540.749,4.73423e-15,318.038,179.345)"><stop offset="0" style="stop-color:#e8493d;stop-opacity:1"/><stop offset="0.22" style="stop-color:#ea533a;stop-opacity:1"/><stop offset="0.6" style="stop-color:#f06f31;stop-opacity:1"/><stop offset="1" style="stop-color:#f79226;stop-opacity:1"/></linearGradient></defs></svg>